<svg id="Слой_1" data-name="Слой 1" xmlns="http://www.w3.org/2000/svg" viewBox="0 0 60 60"><defs><style>.cls-1{fill:#d2fcd2;}.cls-2{fill:#303541;}</style></defs><title>1</title><rect class="cls-1" x="15" y="8.5" width="30" height="43"/><path class="cls-2" d="M52.44,28.4H51.31V15.53a3,3,0,0,0-3-3h-37a3,3,0,0,0-3,3V28.4H7.56a3,3,0,0,0-3,3v13.2a3,3,0,0,0,3,3h1v2.31a1.65,1.65,0,0,0,3.3,0V47.54h36.3v2.31a1.65,1.65,0,0,0,3.3,0V47.54h1a3,3,0,0,0,3-3V31.37A3,3,0,0,0,52.44,28.4ZM11.71,15.86H48V28.4H46.5V24.77a4.29,4.29,0,0,0-4.29-4.29h-6.6a4.29,4.29,0,0,0-4.29,4.29V28.4H28.56V24.77a4.3,4.3,0,0,0-4.29-4.29h-6.6a4.29,4.29,0,0,0-4.29,4.29V28.4H11.71ZM43.2,28.4H34.62V24.77a1,1,0,0,1,1-1h6.6a1,1,0,0,1,1,1Zm-17.94,0H16.68V24.77a1,1,0,0,1,1-1h6.6a1,1,0,0,1,1,1ZM52.11,44.24H7.89V31.7H52.11Z"/></svg>