<svg id="Слой_1" data-name="Слой 1" xmlns="http://www.w3.org/2000/svg" viewBox="0 0 60 60"><defs><style>.cls-1{fill:#d2fcd2;}.cls-2{fill:#303541;}</style></defs><title>10</title><rect class="cls-1" x="7.5" y="17.17" width="45" height="35" transform="translate(-4.67 64.67) rotate(-90)"/><path class="cls-2" d="M42.54,46.56H17.46a3,3,0,0,1-3-3V26.43a3,3,0,0,1,3-3H42.54a3,3,0,0,1,3,3V43.59A3,3,0,0,1,42.54,46.56Zm-24.75-3.3H42.21V26.76H17.79Z"/><path class="cls-2" d="M52.44,16.53H33.89L44.77,5.65a1.65,1.65,0,1,0-2.33-2.34L30.08,15.68l-7-7A1.65,1.65,0,0,0,20.69,11l5.57,5.57H7.56a3,3,0,0,0-3,3v31a3,3,0,0,0,3,3H52.44a3,3,0,0,0,3-3v-31A3,3,0,0,0,52.44,16.53Zm-.33,33.66H7.89V19.83H52.11Z"/><path class="cls-2" d="M48.31,27.58h0a2,2,0,0,1-2-2h0a2,2,0,0,1,2-2h0a2,2,0,0,1,2,2h0A2,2,0,0,1,48.31,27.58Z"/><path class="cls-2" d="M48.31,33.52h0a2,2,0,0,1-2-2h0a2,2,0,0,1,2-2h0a2,2,0,0,1,2,2h0A2,2,0,0,1,48.31,33.52Z"/></svg>