<svg id="Слой_1" data-name="Слой 1" xmlns="http://www.w3.org/2000/svg" viewBox="0 0 60 60"><defs><style>.cls-1{fill:#d2fcd2;}.cls-2{fill:#303541;}</style></defs><title>11</title><rect class="cls-1" x="0.5" y="15.5" width="59" height="29"/><path class="cls-2" d="M38,29.67a1.65,1.65,0,0,0,0-3.3H33.6V21.75H38a1.65,1.65,0,0,0,0-3.3H33.6V17.13a1.65,1.65,0,0,0-3.3,0V38.91a1.65,1.65,0,0,0,3.3,0V37.59H38a1.65,1.65,0,0,0,0-3.3H33.6V29.67Z"/><path class="cls-2" d="M46.61,16.62A17.47,17.47,0,0,0,18,9.37H6.24a1.65,1.65,0,0,0-1.41,2.51l7.68,12.61V45.83h0v6.92a2.64,2.64,0,0,0,2.64,2.64h29.7a2.64,2.64,0,0,0,2.64-2.64V22.08a16.26,16.26,0,0,0-.1-1.85A7.27,7.27,0,0,1,52.11,27V37.92a1.65,1.65,0,1,0,3.3,0V27A10.57,10.57,0,0,0,46.61,16.62Zm-2.42,5.46V44.19H15.81V22.08a14.19,14.19,0,0,1,28.38,0ZM15.27,12.67a17.38,17.38,0,0,0-2.43,6l-3.66-6Zm.54,39.44V47.49H44.19v4.62Z"/></svg>