<svg id="Слой_1" data-name="Слой 1" xmlns="http://www.w3.org/2000/svg" viewBox="0 0 60 60"><defs><style>.cls-1{fill:#d2fcd2;}.cls-2{fill:#303541;}</style></defs><title>12</title><rect class="cls-1" x="12.8" y="0.5" width="26" height="59"/><path class="cls-2" d="M7.92,33.6A1.65,1.65,0,0,1,6.27,32V26a1.65,1.65,0,0,1,3.3,0v6A1.65,1.65,0,0,1,7.92,33.6Z"/><path class="cls-2" d="M13.88,37.57a1.65,1.65,0,0,1-1.65-1.65V30a1.65,1.65,0,1,1,3.3,0v6A1.65,1.65,0,0,1,13.88,37.57Z"/><path class="cls-2" d="M51.09,12.41H45.16a9.58,9.58,0,0,0-9.4-7.82H15.84a9.6,9.6,0,0,0,0,19.19h2.35V29a1.65,1.65,0,0,0,3.3,0V23.78H35.76a9.57,9.57,0,0,0,9.43-8.07h5.24v12.6H32.78A2.64,2.64,0,0,0,30.14,31v4.47a4.29,4.29,0,0,0-3,4.09V51.12a4.29,4.29,0,0,0,4.29,4.29h.68a4.29,4.29,0,0,0,4.29-4.29V39.51a4.3,4.3,0,0,0-3-4.07V31.61H51.09A2.65,2.65,0,0,0,53.73,29V15.06A2.65,2.65,0,0,0,51.09,12.41ZM35.76,20.48H15.84a6.3,6.3,0,0,1,0-12.59H35.76a6.3,6.3,0,0,1,0,12.59ZM33.09,51.12a1,1,0,0,1-1,1h-.68a1,1,0,0,1-1-1V39.51a1,1,0,0,1,1-1h.68a1,1,0,0,1,1,1Z"/></svg>