<svg id="Слой_1" data-name="Слой 1" xmlns="http://www.w3.org/2000/svg" viewBox="0 0 60 60"><defs><style>.cls-1{fill:#d2fcd2;}.cls-2{fill:#303541;}</style></defs><title>13</title><rect class="cls-1" x="17" y="0.5" width="26" height="59"/><path class="cls-2" d="M55.34,34.35a1.66,1.66,0,0,0-2.07-1.09,19.54,19.54,0,0,1-4.29.83V11.19A6.6,6.6,0,0,0,36,9.72l-1.34-.49a1.65,1.65,0,0,0-1.13,3.1l5.58,2a1.9,1.9,0,0,0,.57.1,1.66,1.66,0,0,0,1.55-1.09,1.64,1.64,0,0,0-1-2.11l-1.08-.4a3.29,3.29,0,0,1,6.57.32V34.05c-4.45-.43-8.55-2.29-12.81-4.24-7.41-3.38-15.81-7.21-27.13-3.58a1.65,1.65,0,1,0,1,3.14c.67-.21,1.33-.39,2-.55l1.43,15a8.67,8.67,0,0,0,6.1,7.5l-.54,2a1.65,1.65,0,0,0,1.17,2,1.54,1.54,0,0,0,.43.06,1.66,1.66,0,0,0,1.59-1.22l.69-2.58H39.81l.69,2.58a1.65,1.65,0,1,0,3.18-.86l-.47-1.75a8.5,8.5,0,0,0,7.47-7.69l.65-6.77a24.25,24.25,0,0,0,2.92-.71A1.65,1.65,0,0,0,55.34,34.35ZM47.4,43.57a5.19,5.19,0,0,1-4.91,4.74H18.35a5.24,5.24,0,0,1-4.91-4.82L12,28.23c7.55-.87,13.62,1.89,19.52,4.59C36.36,35,41.34,37.3,47,37.44a2,2,0,0,0,.34,0l.22,0H48Z"/></svg>