<svg id="Слой_1" data-name="Слой 1" xmlns="http://www.w3.org/2000/svg" viewBox="0 0 60 60"><defs><style>.cls-1{fill:#d2fcd2;}.cls-2{fill:#303541;}</style></defs><title>14</title><rect class="cls-1" x="5.5" y="15.5" width="49" height="29"/><path class="cls-2" d="M30,22.41A11.55,11.55,0,1,0,41.55,34,11.56,11.56,0,0,0,30,22.41Zm0,3.3a8.26,8.26,0,0,1,8.21,7.49,6.52,6.52,0,0,1-.68-.52,6.26,6.26,0,0,0-8.56,0,3,3,0,0,1-4.38,0,7.05,7.05,0,0,0-2.38-1.4A8.24,8.24,0,0,1,30,25.71Zm0,16.5a8.25,8.25,0,0,1-8.21-7.52,8.7,8.7,0,0,1,.72.55,6.25,6.25,0,0,0,8.55,0,3,3,0,0,1,4.38,0,7.21,7.21,0,0,0,2.36,1.4A8.28,8.28,0,0,1,30,42.21Z"/><path class="cls-2" d="M41.88,13.83h-7a1.65,1.65,0,1,1,0-3.3h7a1.65,1.65,0,0,1,0,3.3Z"/><path class="cls-2" d="M18.12,14.16h0a2,2,0,0,1-2-2h0a2,2,0,0,1,2-2h0a2,2,0,0,1,2,2h0A2,2,0,0,1,18.12,14.16Z"/><path class="cls-2" d="M24.06,14.16h0a2,2,0,0,1-2-2h0a2,2,0,0,1,2-2h0a2,2,0,0,1,2,2h0A2,2,0,0,1,24.06,14.16Z"/><path class="cls-2" d="M46.5,4.59h-33a3,3,0,0,0-3,3V48.48a3,3,0,0,0,3,3h1v2.31a1.65,1.65,0,0,0,3.3,0V51.45H42.21v2.31a1.65,1.65,0,0,0,3.3,0V51.45h1a3,3,0,0,0,3-3V7.56A3,3,0,0,0,46.5,4.59Zm-.33,3.3v8.58H13.83V7.89ZM13.83,48.15V19.77H46.17V48.15Z"/></svg>