<svg id="Слой_1" data-name="Слой 1" xmlns="http://www.w3.org/2000/svg" viewBox="0 0 60 60"><defs><style>.cls-1{fill:#d2fcd2;}.cls-2{fill:#303541;}</style></defs><title>2</title><rect class="cls-1" x="5.5" y="15.5" width="49" height="29" transform="translate(0 60) rotate(-90)"/><path class="cls-2" d="M51.13,24.3,48.19,12.55A5.6,5.6,0,0,0,42.75,8.3H17.25a5.6,5.6,0,0,0-5.44,4.25L8.87,24.3a5.63,5.63,0,0,0-4.28,5.45v7.92a5.61,5.61,0,0,0,5.61,5.61h.2v4.13a4.3,4.3,0,0,0,4.29,4.29h2.64a4.3,4.3,0,0,0,4.29-4.29V43.28H39.24v4.13a4.3,4.3,0,0,0,4.29,4.29h2.64a4.3,4.3,0,0,0,4.29-4.29V43.24a5.62,5.62,0,0,0,4.95-5.57V29.75A5.63,5.63,0,0,0,51.13,24.3ZM18.32,47.41a1,1,0,0,1-1,1H14.69a1,1,0,0,1-1-1V43.78h4.62Zm28.84,0a1,1,0,0,1-1,1H43.53a1,1,0,0,1-1-1V43.78h4.62Zm5-9.74A2.31,2.31,0,0,1,49.8,40H10.2a2.31,2.31,0,0,1-2.31-2.31V29.75a2.32,2.32,0,0,1,2.31-2.31,1.64,1.64,0,0,0,1.6-1.25L15,13.35a2.31,2.31,0,0,1,2.24-1.75h25.5A2.31,2.31,0,0,1,45,13.35L48.2,26.19a1.64,1.64,0,0,0,1.6,1.25,2.32,2.32,0,0,1,2.31,2.31Z"/><path class="cls-2" d="M14.89,29.09a4.62,4.62,0,1,0,4.62,4.62A4.63,4.63,0,0,0,14.89,29.09Zm0,5.94a1.32,1.32,0,1,1,1.32-1.32A1.32,1.32,0,0,1,14.89,35Z"/><path class="cls-2" d="M44.85,29.09a4.62,4.62,0,1,0,4.62,4.62A4.62,4.62,0,0,0,44.85,29.09Zm0,5.94a1.32,1.32,0,1,1,1.32-1.32A1.32,1.32,0,0,1,44.85,35Z"/><path class="cls-2" d="M37.42,32.06H22.58a1.65,1.65,0,1,0,0,3.3H37.42a1.65,1.65,0,1,0,0-3.3Z"/><path class="cls-2" d="M18.12,25.13H41.88A1.65,1.65,0,0,0,43.46,23l-1.93-6.42a4,4,0,0,0-3.88-2.68H22.35a4,4,0,0,0-3.88,2.68L16.54,23a1.65,1.65,0,0,0,1.58,2.12Zm3.51-7.59a.77.77,0,0,1,.72-.33h15.3a.77.77,0,0,1,.72.33l1.29,4.29H20.34Z"/></svg>