<svg id="Слой_1" data-name="Слой 1" xmlns="http://www.w3.org/2000/svg" viewBox="0 0 60 60"><defs><style>.cls-1{fill:#d2fcd2;}.cls-2{fill:#303541;}</style></defs><title>3</title><rect class="cls-1" x="0.5" y="13.52" width="59" height="29"/><path class="cls-2" d="M52.44,4.59H7.56a3,3,0,0,0-3,3V48.48a3,3,0,0,0,3,3h5v2.31a1.65,1.65,0,0,0,3.3,0V51.45H44.19v2.31a1.65,1.65,0,1,0,3.3,0V51.45h4.95a3,3,0,0,0,3-3V7.56A3,3,0,0,0,52.44,4.59Zm-.33,3.3V20.43H7.89V7.89ZM17.79,23.73H42.21V36.6a3.64,3.64,0,0,1-3.63,3.63H21.42a3.64,3.64,0,0,1-3.63-3.63ZM7.89,48.15V23.73h6.6V36.6a6.94,6.94,0,0,0,6.93,6.93H38.58a6.94,6.94,0,0,0,6.93-6.93V23.73h6.6V48.15Z"/><path class="cls-2" d="M25.05,16.8a2.64,2.64,0,1,0-2.64-2.64A2.64,2.64,0,0,0,25.05,16.8Z"/><path class="cls-2" d="M15.15,16.8a2.64,2.64,0,1,0-2.64-2.64A2.64,2.64,0,0,0,15.15,16.8Z"/><path class="cls-2" d="M35,16.8a2.64,2.64,0,1,0-2.64-2.64A2.64,2.64,0,0,0,35,16.8Z"/><path class="cls-2" d="M44.85,16.8a2.64,2.64,0,1,0-2.64-2.64A2.64,2.64,0,0,0,44.85,16.8Z"/></svg>