<svg id="Слой_1" data-name="Слой 1" xmlns="http://www.w3.org/2000/svg" viewBox="0 0 60 60"><defs><style>.cls-1{fill:#d2fcd2;}.cls-2{fill:#303541;}</style></defs><title>4</title><rect class="cls-1" x="8.5" y="13.52" width="43" height="29"/><path class="cls-2" d="M44.52,4.59h-29a3,3,0,0,0-3,3V48.48a3,3,0,0,0,3,3h2.89v2.31a1.65,1.65,0,0,0,3.3,0V51.45h16.5v2.31a1.65,1.65,0,0,0,3.3,0V51.45h3.05a3,3,0,0,0,3-3V7.56A3,3,0,0,0,44.52,4.59Zm-.33,3.3V20.43H15.81V7.89ZM15.81,48.15V23.73H44.19V48.15Z"/><path class="cls-2" d="M22,26.37A1.65,1.65,0,0,0,20.35,28v9.9a1.65,1.65,0,0,0,3.3,0V28A1.65,1.65,0,0,0,22,26.37Z"/><path class="cls-2" d="M22,17.79a1.65,1.65,0,0,0,1.65-1.65v-4a1.65,1.65,0,1,0-3.3,0v4A1.65,1.65,0,0,0,22,17.79Z"/></svg>