<svg id="Слой_1" data-name="Слой 1" xmlns="http://www.w3.org/2000/svg" viewBox="0 0 60 60"><defs><style>.cls-1{fill:#d2fcd2;}.cls-2{fill:#303541;}</style></defs><title>5</title><rect class="cls-1" x="5.5" y="15.5" width="49" height="29" transform="translate(0 60) rotate(-90)"/><path class="cls-2" d="M30,50.49a5.61,5.61,0,1,1,5.61-5.61A5.61,5.61,0,0,1,30,50.49Zm0-7.92a2.31,2.31,0,1,0,2.31,2.31A2.32,2.32,0,0,0,30,42.57Z"/><path class="cls-2" d="M47.82,31.61A1.65,1.65,0,0,1,46.5,31a20.63,20.63,0,0,0-33,0,1.65,1.65,0,1,1-2.64-2,23.92,23.92,0,0,1,38.26,0,1.64,1.64,0,0,1-.32,2.31A1.68,1.68,0,0,1,47.82,31.61Z"/><path class="cls-2" d="M41.87,38.6a1.66,1.66,0,0,1-1.32-.66,13.2,13.2,0,0,0-21.1,0,1.65,1.65,0,0,1-2.64-2,16.5,16.5,0,0,1,26.38,0,1.65,1.65,0,0,1-1.32,2.64Z"/><path class="cls-2" d="M6.24,24.68a1.59,1.59,0,0,1-1-.33A1.65,1.65,0,0,1,4.92,22a31.37,31.37,0,0,1,50.16,0,1.65,1.65,0,0,1-2.64,2A28.05,28.05,0,0,0,7.56,24,1.64,1.64,0,0,1,6.24,24.68Z"/></svg>