<svg id="Слой_1" data-name="Слой 1" xmlns="http://www.w3.org/2000/svg" viewBox="0 0 60 60"><defs><style>.cls-1{fill:#d2fcd2;}.cls-2{fill:#303541;}</style></defs><title>6</title><rect class="cls-1" x="4" y="21.46" width="52" height="25"/><path class="cls-2" d="M52.44,17.79a3,3,0,0,0,3-3V9.54a3,3,0,0,0-3-3H7.56a3,3,0,0,0-3,3v5.28a3,3,0,0,0,3,3h1V50.13H6.24a1.65,1.65,0,0,0,0,3.3H53.76a1.65,1.65,0,0,0,0-3.3H51.45V17.79ZM7.89,9.87H52.11v4.62H7.89ZM40.11,50.13H36.05a7.43,7.43,0,0,0,1.42-4.36c0-6.28-6.33-11.1-6.6-11.3a1.66,1.66,0,0,0-1.81-.11A1.68,1.68,0,0,0,28.24,36c.21,1.71-.57,2.36-2.19,3.58s-3.76,2.8-3.76,6.2a7.43,7.43,0,0,0,1.42,4.36H19.65V32a6.27,6.27,0,0,1,6.27-6.27h7.92A6.27,6.27,0,0,1,40.11,32ZM25.59,45.77c0-1.66.88-2.4,2.43-3.56a8.89,8.89,0,0,0,3-3.13c1.48,1.62,3.18,4.05,3.18,6.69a4.29,4.29,0,0,1-8.58,0Zm22.56,4.36H43.41V32a9.58,9.58,0,0,0-9.57-9.57H25.92A9.58,9.58,0,0,0,16.35,32V50.13h-4.5V17.79h36.3Z"/></svg>