<svg id="Слой_1" data-name="Слой 1" xmlns="http://www.w3.org/2000/svg" viewBox="0 0 60 60"><defs><style>.cls-1{fill:#d2fcd2;}.cls-2{fill:#303541;}</style></defs><title>7</title><rect class="cls-1" x="0.5" y="15.5" width="59" height="29"/><path class="cls-2" d="M35.94,4.59A19.49,19.49,0,0,0,16.47,24.06,19.87,19.87,0,0,0,17,28.35H14.08a1.63,1.63,0,0,0-1.64,1.82L13,35.54a6.88,6.88,0,0,0-1.81-.26,6.6,6.6,0,1,0,3.07,12.43l.65,6.22a1.66,1.66,0,0,0,1.64,1.48H31.4A1.64,1.64,0,0,0,33,53.93l1.1-10.48c.59,0,1.2.08,1.8.08a19.47,19.47,0,0,0,0-38.94ZM13.86,43.82a3.3,3.3,0,1,1-.46-4.39l.35,3.32ZM18,52.11,15.91,31.65H32.05L29.92,52.11Zm9.65-28a8.25,8.25,0,1,1,8.25,8.25c-.21,0-.43,0-.64,0l.22-2.1a1.64,1.64,0,0,0-.42-1.28,1.67,1.67,0,0,0-1.22-.54h-5A8.18,8.18,0,0,1,27.69,24.06Zm8.25,16.17a14.13,14.13,0,0,1-1.46-.07l.48-4.6c.32,0,.65,0,1,0a11.56,11.56,0,1,0-10.72-7.26H20.35A16.17,16.17,0,1,1,35.94,40.23Z"/></svg>