<svg id="Слой_1" data-name="Слой 1" xmlns="http://www.w3.org/2000/svg" viewBox="0 0 60 60"><defs><style>.cls-1{fill:#d2fcd2;}.cls-2{fill:#303541;}</style></defs><title>8</title><rect class="cls-1" x="8.5" y="15.5" width="43" height="29"/><path class="cls-2" d="M36.51,38.39a17.51,17.51,0,0,0,11-16.23,1.65,1.65,0,0,0-1.65-1.65h-11a1.68,1.68,0,0,0-.24-.69c-1.34-2.15-.7-3.25.36-5.06,1.26-2.16,3-5.12-.46-9.53a1.65,1.65,0,0,0-2.6,2c2.07,2.66,1.37,3.86.21,5.84-1,1.77-2.4,4.14-.88,7.42H27.57a1.65,1.65,0,0,0-.24-.82c-.68-1.08-.43-1.5.24-2.64.84-1.45,2.11-3.64-.34-6.79a1.65,1.65,0,1,0-2.61,2c1.09,1.39.82,1.85.1,3.09A5.24,5.24,0,0,0,24,20.51H14.16a1.65,1.65,0,0,0-1.65,1.65,17.5,17.5,0,0,0,11,16.23L15.21,52.94a1.65,1.65,0,1,0,2.86,1.64l3.78-6.64h16.3l3.78,6.64a1.65,1.65,0,0,0,1.43.83,1.63,1.63,0,0,0,.82-.22,1.65,1.65,0,0,0,.62-2.25ZM15.91,23.81H44.09a14.19,14.19,0,0,1-28.18,0Zm7.82,20.83,3-5.3a17.19,17.19,0,0,0,6.5,0l3,5.3Z"/></svg>