<svg id="Слой_1" data-name="Слой 1" xmlns="http://www.w3.org/2000/svg" viewBox="0 0 60 60"><defs><style>.cls-1{fill:#d2fcd2;}.cls-2{fill:#303541;}</style></defs><title>9</title><rect class="cls-1" x="0.5" y="15.5" width="59" height="29"/><path class="cls-2" d="M55.22,14.51l0-.08a.37.37,0,0,0,0-.11,1,1,0,0,1,0-.1s0-.06,0-.09a.5.5,0,0,0,0-.12.36.36,0,0,0,0-.11v-.1a.11.11,0,0,0,0-.05.13.13,0,0,0,0-.06v-.1a.43.43,0,0,0,0-.11.5.5,0,0,0,0-.12s0-.06,0-.09a1,1,0,0,1,0-.1.37.37,0,0,0,0-.11l0-.08-.06-.09-.07-.12,0,0h0L55,12.63l-.1-.1-.07-.06,0,0-4.1-3.23a1.65,1.65,0,0,0-2,2.59l.37.29H45a4.62,4.62,0,0,0-4.62,4.62V46.51a1.33,1.33,0,0,1-2.66,0V16.72a4.63,4.63,0,0,0-9.26,0V46.51a1.33,1.33,0,0,1-2.66,0V16.72a4.63,4.63,0,0,0-9.25,0V46.51a1.33,1.33,0,1,1-2.66,0V16.72a4.63,4.63,0,0,0-9.26,0V25.5a1.65,1.65,0,0,0,3.3,0V16.72a1.33,1.33,0,0,1,2.66,0V46.51a4.63,4.63,0,1,0,9.26,0V16.72a1.33,1.33,0,0,1,2.65,0V46.51a4.63,4.63,0,1,0,9.26,0V16.72a1.33,1.33,0,0,1,2.66,0V46.51a4.63,4.63,0,0,0,9.26,0V16.72A1.32,1.32,0,0,1,45,15.4h4l-.37.28a1.65,1.65,0,0,0,1,2.95,1.68,1.68,0,0,0,1-.35L54.78,15l0,0,0,0,.12-.12.07-.08h0l0,0,.07-.12Z"/></svg>